<svg xmlns="http://www.w3.org/2000/svg" viewBox="0 0 520 420" role="img" aria-label="Abstract notes and charts">
  <defs>
    <linearGradient id="bg" x1="0" y1="0" x2="1" y2="1">
      <stop offset="0" stop-color="#eef2ff" />
      <stop offset="1" stop-color="#f0f9ff" />
    </linearGradient>
    <linearGradient id="acc" x1="0" y1="0" x2="1" y2="1">
      <stop offset="0" stop-color="#0284c7" />
      <stop offset="1" stop-color="#0ea5e9" />
    </linearGradient>
    <pattern id="grid" width="28" height="28" patternUnits="userSpaceOnUse">
      <path d="M28 0H0V28" fill="none" stroke="rgba(2,132,199,0.10)" stroke-width="1" />
    </pattern>
    <filter id="softShadow" x="-20%" y="-20%" width="140%" height="140%">
      <feDropShadow dx="0" dy="16" stdDeviation="18" flood-color="rgba(15,23,42,0.14)" />
    </filter>
  </defs>

  <rect x="10" y="10" width="500" height="400" rx="24" fill="url(#bg)" />
  <rect x="10" y="10" width="500" height="400" rx="24" fill="url(#grid)" />

  <circle cx="410" cy="110" r="54" fill="url(#acc)" opacity="0.18" />
  <circle cx="432" cy="96" r="18" fill="url(#acc)" opacity="0.45" />

  <g filter="url(#softShadow)">
    <rect x="70" y="78" width="300" height="120" rx="18" fill="rgba(255,255,255,0.92)" stroke="rgba(226,232,240,0.9)" />
    <rect x="92" y="104" width="210" height="10" rx="6" fill="rgba(15,23,42,0.18)" />
    <rect x="92" y="126" width="262" height="8" rx="6" fill="rgba(15,23,42,0.12)" />
    <rect x="92" y="144" width="242" height="8" rx="6" fill="rgba(15,23,42,0.12)" />
    <rect x="92" y="162" width="190" height="8" rx="6" fill="rgba(15,23,42,0.12)" />
  </g>

  <g filter="url(#softShadow)">
    <rect x="110" y="214" width="360" height="150" rx="18" fill="rgba(255,255,255,0.92)" stroke="rgba(226,232,240,0.9)" />
    <rect x="132" y="240" width="230" height="10" rx="6" fill="rgba(15,23,42,0.18)" />
    <rect x="132" y="262" width="300" height="8" rx="6" fill="rgba(15,23,42,0.12)" />
    <rect x="132" y="280" width="280" height="8" rx="6" fill="rgba(15,23,42,0.12)" />
    <rect x="132" y="298" width="254" height="8" rx="6" fill="rgba(15,23,42,0.12)" />

    <rect x="132" y="324" width="14" height="22" rx="7" fill="rgba(2,132,199,0.55)" />
    <rect x="154" y="312" width="14" height="34" rx="7" fill="rgba(2,132,199,0.68)" />
    <rect x="176" y="304" width="14" height="42" rx="7" fill="rgba(2,132,199,0.80)" />
    <rect x="198" y="292" width="14" height="54" rx="7" fill="rgba(2,132,199,0.92)" />
  </g>

  <g>
    <path d="M86 225c-6 0-12-5-12-12s6-12 12-12 12 5 12 12-6 12-12 12z" fill="rgba(2,132,199,0.25)" />
    <path d="M86 220c-4 0-7-3-7-7s3-7 7-7 7 3 7 7-3 7-7 7z" fill="rgba(2,132,199,0.45)" />
    <path d="M68 340l18-10 14 8 18-16 14 10" fill="none" stroke="rgba(2,132,199,0.55)" stroke-width="3" stroke-linecap="round" stroke-linejoin="round" />
  </g>
</svg>

