<svg xmlns="http://www.w3.org/2000/svg" viewBox="0 0 64 64" role="img" aria-label="EduSynth AI logo">
  <defs>
    <linearGradient id="g" x1="0" y1="0" x2="1" y2="1">
      <stop offset="0" stop-color="#0284c7" />
      <stop offset="1" stop-color="#0ea5e9" />
    </linearGradient>
  </defs>
  <rect x="2" y="2" width="60" height="60" rx="14" fill="url(#g)" />
  <path d="M18 22c7-3 14-3 21 0v24c-7-3-14-3-21 0V22z" fill="rgba(255,255,255,0.95)" />
  <path d="M46 22c-7-3-14-3-21 0v24c7-3 14-3 21 0V22z" fill="rgba(255,255,255,0.82)" />
  <path d="M32 22v24" stroke="rgba(15,23,42,0.18)" stroke-width="2" stroke-linecap="round" />
  <path
    d="M45 18l1.4 3.4L50 23l-3.6 1.6L45 28l-1.4-3.4L40 23l3.6-1.6L45 18z"
    fill="rgba(255,255,255,0.95)"
  />
</svg>

